<svg viewBox="0 0 96 26"><path stroke="white" d="M 0 25.685 L 11.5 25.685 C 13.166 25.684 14.764 25.027 15.942 23.858 C 17.121 22.688 17.784 21.102 17.786 19.447 L 17.786 13.149 L 13.423 13.149 L 15.942 10.648 C 16.821 9.776 17.419 8.664 17.661 7.454 C 17.903 6.244 17.779 4.99 17.303 3.85 C 16.828 2.711 16.023 1.737 14.99 1.051 C 13.957 0.366 12.742 0 11.5 0 L 0 0 Z M 9.723 16.824 L 13.423 13.149 L 13.423 19.447 C 13.423 19.954 13.22 20.439 12.859 20.797 C 12.499 21.155 12.01 21.356 11.5 21.356 L 4.358 21.356 L 4.358 4.33 L 11.5 4.33 C 11.88 4.33 12.252 4.441 12.568 4.651 C 12.885 4.86 13.131 5.158 13.277 5.507 C 13.422 5.856 13.46 6.24 13.386 6.61 C 13.312 6.98 13.129 7.32 12.86 7.587 L 6.64 13.764 Z M 39.645 8.391 C 41.973 8.391 44.451 10.375 45.046 12.529 L 45.046 8.644 L 49.403 8.644 L 49.403 25.677 L 45.046 25.677 L 45.046 21.791 C 44.451 23.946 41.973 25.929 39.645 25.929 C 38.121 25.929 37.07 25.566 35.814 24.832 C 34.558 24.098 33.612 23.04 32.906 21.731 C 32.2 20.423 31.961 18.894 31.961 17.187 L 31.961 17.132 C 31.961 15.426 32.194 13.911 32.906 12.587 C 33.619 11.264 34.563 10.215 35.814 9.488 C 37.064 8.762 38.121 8.391 39.645 8.391 Z M 42.879 21.405 C 43.547 21.019 44.092 20.452 44.448 19.77 L 44.448 19.771 C 44.845 19.046 45.046 18.167 45.046 17.163 C 45.046 16.159 44.845 15.282 44.448 14.556 C 44.091 13.874 43.547 13.307 42.879 12.921 C 42.209 12.55 41.455 12.354 40.688 12.352 C 39.921 12.35 39.167 12.541 38.495 12.909 C 37.832 13.29 37.294 13.852 36.943 14.528 C 36.545 15.253 36.344 16.13 36.344 17.135 L 36.344 17.191 C 36.344 18.196 36.545 19.073 36.943 19.798 C 37.294 20.474 37.833 21.036 38.495 21.418 C 39.167 21.785 39.922 21.976 40.689 21.974 C 41.455 21.972 42.209 21.776 42.879 21.405 Z M 25.512 12.529 L 25.512 8.644 L 21.155 8.644 L 21.155 25.685 L 25.512 25.685 L 25.512 17.166 C 25.512 16.162 25.713 15.284 26.11 14.558 C 26.467 13.876 27.011 13.31 27.68 12.923 C 28.347 12.541 29.106 12.344 29.877 12.354 C 30.277 12.352 30.675 12.401 31.062 12.502 L 31.062 8.389 L 30.913 8.389 C 28.586 8.389 26.109 10.375 25.512 12.529 Z M 52.899 8.644 L 57.227 8.644 L 57.227 25.741 L 52.899 25.741 Z M 55.105 0.345 C 54.407 0.345 53.739 0.621 53.245 1.11 C 52.752 1.6 52.475 2.264 52.475 2.956 C 52.475 3.649 52.752 4.313 53.245 4.803 C 53.739 5.292 54.407 5.567 55.105 5.567 C 55.446 5.57 55.785 5.504 56.1 5.372 C 56.415 5.24 56.699 5.045 56.935 4.799 C 57.412 4.303 57.678 3.644 57.678 2.958 C 57.678 2.272 57.412 1.612 56.935 1.116 C 56.699 0.87 56.415 0.675 56.1 0.542 C 55.785 0.41 55.446 0.343 55.105 0.345 Z M 60.75 3.266 L 65.078 3.266 L 65.078 25.741 L 60.75 25.741 Z M 72.929 3.266 L 68.601 3.266 L 68.601 25.741 L 72.929 25.741 Z M 84.016 8.391 C 85.63 8.391 87.085 8.75 88.342 9.458 C 89.59 10.148 90.615 11.177 91.296 12.424 C 91.976 13.661 92.32 15.069 92.32 16.61 C 92.319 17.155 92.289 17.699 92.231 18.241 L 92.19 18.63 L 78.96 18.63 C 79.222 19.635 79.697 20.437 80.396 21.068 C 81.361 21.938 82.507 22.36 83.897 22.36 C 84.821 22.372 85.736 22.171 86.569 21.774 C 87.297 21.424 87.91 20.875 88.337 20.192 L 90.903 22.664 C 90.427 23.344 89.842 23.944 89.173 24.439 C 87.781 25.474 86.047 26 84.018 26 C 82.404 26 80.934 25.629 79.649 24.903 C 78.351 24.169 77.289 23.083 76.588 21.772 C 75.863 20.44 75.494 18.889 75.494 17.164 C 75.494 15.44 75.852 13.897 76.557 12.581 C 77.243 11.272 78.3 10.19 79.597 9.47 C 80.879 8.754 82.367 8.391 84.016 8.391 Z M 80.388 13.176 C 79.69 13.805 79.215 14.608 78.952 15.612 L 88.931 15.612 C 88.836 15.078 88.644 14.566 88.363 14.101 C 87.935 13.395 87.309 12.828 86.561 12.469 C 85.728 12.071 84.813 11.871 83.889 11.883 C 82.499 11.883 81.354 12.305 80.388 13.176 Z" fill="rgb(255,255,255)"></path></svg>