<svg width="171" height="60" viewBox="0 0 171 60" fill="none" xmlns="http://www.w3.org/2000/svg">
<path d="M26.4109 43.7088L20.6714 32.825H16.0331V43.7088H12V16.2983H23.2881C26.8351 16.2983 29.7371 19.1805 29.7371 22.7473V26.3736C29.7371 29.3153 27.7627 31.7907 25.0814 32.5695L30.945 43.7064H26.4109V43.7088ZM16.0306 20.3289V28.7944H23.2857C24.635 28.7944 25.704 27.6857 25.704 26.3761V22.7498C25.704 21.4401 24.635 20.3314 23.2857 20.3314H16.0306V20.3289Z" fill="currentColor"/>
<path d="M63.0678 13.6594C61.912 14.9789 60.7586 16.358 59.6325 17.7693C58.5163 16.8541 57.0926 16.301 55.5374 16.301H50.6982C47.1513 16.301 44.2518 19.1807 44.2518 22.7474V37.26C44.2518 37.5775 44.2741 37.8876 44.3187 38.1902L44.2939 38.215L44.3014 38.2571C44.3361 38.5449 44.3559 39.026 44.3659 39.3485C44.3733 39.5692 44.3758 39.6585 44.3832 39.7007C44.0781 40.8739 43.4779 42.1389 42.9496 43.2551L42.9397 43.2774C42.8479 43.4634 42.7511 43.6668 42.6395 43.9124L40.8438 48L43.1133 45.79L43.21 45.6908C43.2522 45.6511 43.2919 45.6114 43.339 45.5692C44.165 44.7284 45.167 43.5279 46.3278 41.9975C47.4787 43.0641 49.0141 43.7115 50.6958 43.7115H55.5349C59.0819 43.7115 61.9864 40.8293 61.9864 37.26V22.7474C61.9864 21.981 61.85 21.2468 61.6044 20.5622C61.8351 19.6966 62.1178 18.7267 62.5097 17.8016C62.6709 17.4246 63.2266 15.8297 64.0773 13.322L64.5238 12L63.0653 13.6618L63.0678 13.6594ZM48.2799 33.6337V22.7474C48.2799 21.4403 49.3489 20.3315 50.6958 20.3315H55.5349C56.1228 20.3315 56.6585 20.5424 57.0752 20.8847C56.4973 21.6759 55.8896 22.5738 55.4655 23.1964L55.4109 23.2757C55.3464 23.3799 55.2993 23.4469 55.2869 23.4692C54.9942 23.8859 54.7015 24.3026 54.4039 24.7193L54.3568 24.7838C52.871 26.8971 51.3282 29.0823 50.0409 31.4436C49.6416 32.1877 49.2001 32.9591 48.5899 33.4576C48.5106 33.5221 48.4113 33.5816 48.2799 33.6362M57.9558 37.2575C57.9558 38.5697 56.8867 39.6784 55.5349 39.6784H50.6958C49.8872 39.6784 49.1778 39.279 48.7462 38.6763C50.9091 35.6056 52.938 32.468 54.4982 30.0273C54.6222 29.8388 54.7437 29.6379 54.8677 29.432L54.9992 29.2112C55.7929 27.8991 56.6139 26.5424 57.9533 26.0141V37.2575H57.9558Z" fill="currentColor"/>
<path d="M94.2366 28.7944V37.2599C94.2366 40.8267 91.3345 43.7088 87.7876 43.7088H82.9509C79.404 43.7088 76.502 40.8267 76.502 37.2599V22.7473C76.502 19.1805 79.404 16.2983 82.9509 16.2983H87.7876C91.3345 16.2983 94.2366 19.1805 94.2366 22.7473H90.206C90.206 21.4377 89.1369 20.3289 87.7876 20.3289H82.9509C81.6016 20.3289 80.5325 21.4377 80.5325 22.7473V37.2599C80.5325 38.5695 81.6016 39.6782 82.9509 39.6782H87.7876C89.1369 39.6782 90.206 38.5695 90.206 37.2599V32.825H85.3693V28.7944H94.239H94.2366Z" fill="currentColor"/>
<path d="M122.455 16.2983H126.486V37.2599C126.486 40.8267 123.584 43.7088 120.037 43.7088H115.2C111.653 43.7088 108.751 40.8267 108.751 37.2599V16.2983H112.782V37.2599C112.782 38.5695 113.851 39.6782 115.2 39.6782H120.037C121.386 39.6782 122.455 38.5695 122.455 37.2599V16.2983Z" fill="currentColor"/>
<path d="M140.999 43.7088V16.2983H158.736V20.3289H145.03V27.1797H157.124V31.2128H145.03V39.6782H158.736V43.7088H140.999Z" fill="currentColor"/>
</svg>
