<svg xmlns="http://www.w3.org/2000/svg" viewBox="0 0 32 32" width="32" height="32" role="img" aria-label="eedee" shape-rendering="crispEdges"><defs><linearGradient id="eedee-g" x1="2" y1="31" x2="31" y2="2" gradientUnits="userSpaceOnUse"><stop offset="0" stop-color="#ff82f3"/><stop offset="1" stop-color="#7b13ff"/></linearGradient></defs><rect width="32" height="32" fill="#0b0b0c"/><g fill="url(#eedee-g)"><rect x="8" y="2" width="5" height="5"/><rect x="14" y="2" width="5" height="5"/><rect x="20" y="2" width="5" height="5"/><rect x="2" y="8" width="5" height="5"/><rect x="26" y="8" width="5" height="5"/><rect x="2" y="14" width="5" height="5"/><rect x="8" y="14" width="5" height="5"/><rect x="14" y="14" width="5" height="5"/><rect x="20" y="14" width="5" height="5"/><rect x="26" y="14" width="5" height="5"/><rect x="2" y="20" width="5" height="5"/><rect x="8" y="26" width="5" height="5"/><rect x="14" y="26" width="5" height="5"/><rect x="20" y="26" width="5" height="5"/><rect x="26" y="26" width="5" height="5"/></g></svg>
